{
  "accessors": [
    {
      "bufferView": 2,
      "componentType": 5126,
      "count": 174,
      "max": [
        1.2995779514312744,
        0.04036099836230278,
        1.9279839992523193
      ],
      "min": [
        -1.281864047050476,
        -0.4015269875526428,
        1.6930429935455322
      ],
      "type": "VEC3"
    },
    {
      "bufferView": 2,
      "byteOffset": 2088,
      "componentType": 5126,
      "count": 174,
      "max": [
        0.9671096205711365,
        0.9956847429275513,
        0.9980257749557495
      ],
      "min": [
        -0.9671096205711365,
        -0.997947096824646,
        -0.9988725781440735
      ],
      "type": "VEC3"
    },
    {
      "bufferView": 1,
      "componentType": 5126,
      "count": 174,
      "max": [
        1.0,
        0.869018018245697
      ],
      "min": [
        -1.850000023841858,
        0.03717099875211716
      ],
      "type": "VEC2"
    },
    {
      "bufferView": 0,
      "componentType": 5125,
      "count": 720,
      "type": "SCALAR"
    },
    {
      "bufferView": 2,
      "byteOffset": 4176,
      "componentType": 5126,
      "count": 49,
      "max": [
        0.18324099481105804,
        -1.293370008468628,
        2.764801025390625
      ],
      "min": [
        -0.14225800335407257,
        -1.5625790357589722,
        2.4265971183776855
      ],
      "type": "VEC3"
    },
    {
      "bufferView": 2,
      "byteOffset": 4764,
      "componentType": 5126,
      "count": 49,
      "max": [
        0.9937556385993958,
        0.24927212297916412,
        0.8945744037628174
      ],
      "min": [
        -0.9937562346458435,
        -0.9689719080924988,
        -0.9989347457885742
      ],
      "type": "VEC3"
    },
    {
      "bufferView": 1,
      "byteOffset": 1392,
      "componentType": 5126,
      "count": 49,
      "max": [
        0.1887499988079071,
        0.08719299733638763
      ],
      "min": [
        0.1887499988079071,
        0.08719299733638763
      ],
      "type": "VEC2"
    },
    {
      "bufferView": 0,
      "byteOffset": 2880,
      "componentType": 5125,
      "count": 252,
      "type": "SCALAR"
    },
    {
      "bufferView": 2,
      "byteOffset": 5352,
      "componentType": 5126,
      "count": 11,
      "max": [
        0.3280540108680725,
        0.2985999882221222,
        1.9351849555969238
      ],
      "min": [
        -0.28707000613212585,
        0.004490999970585108,
        1.452191948890686
      ],
      "type": "VEC3"
    },
    {
      "bufferView": 2,
      "byteOffset": 5484,
      "componentType": 5126,
      "count": 11,
      "max": [
        0.390031099319458,
        0.9418296217918396,
        0.599905788898468
      ],
      "min": [
        -0.3900309205055237,
        0.750944197177887,
        0.2892979681491852
      ],
      "type": "VEC3"
    },
    {
      "bufferView": 1,
      "byteOffset": 1784,
      "componentType": 5126,
      "count": 11,
      "max": [
        1.0,
        1.0
      ],
      "min": [
        0.0,
        0.0
      ],
      "type": "VEC2"
    },
    {
      "bufferView": 0,
      "byteOffset": 3888,
      "componentType": 5125,
      "count": 36,
      "type": "SCALAR"
    },
    {
      "bufferView": 2,
      "byteOffset": 5616,
      "componentType": 5126,
      "count": 1006,
      "max": [
        0.8234390020370483,
        1.5625790357589722,
        3.748095989227295
      ],
      "min": [
        -0.7824559807777405,
        -0.8052700161933899,
        1.7232940196990967
      ],
      "type": "VEC3"
    },
    {
      "bufferView": 2,
      "byteOffset": 17688,
      "componentType": 5126,
      "count": 1006,
      "max": [
        0.9998113512992859,
        0.999667227268219,
        0.999239981174469
      ],
      "min": [
        -0.9998113512992859,
        -0.9990773797035217,
        -0.9982861280441284
      ],
      "type": "VEC3"
    },
    {
      "bufferView": 1,
      "byteOffset": 1872,
      "componentType": 5126,
      "count": 1006,
      "max": [
        0.991195023059845,
        1.9962470531463623
      ],
      "min": [
        -0.9628270268440247,
        0.005584000144153833
      ],
      "type": "VEC2"
    },
    {
      "bufferView": 0,
      "byteOffset": 4032,
      "componentType": 5125,
      "count": 3396,
      "type": "SCALAR"
    },
    {
      "bufferView": 2,
      "byteOffset": 29760,
      "componentType": 5126,
      "count": 1150,
      "max": [
        1.0481220483779907,
        0.6378509998321533,
        3.401585102081299
      ],
      "min": [
        -1.0304069519042969,
        -1.4683899879455566,
        0.00039599998854100704
      ],
      "type": "VEC3"
    },
    {
      "bufferView": 2,
      "byteOffset": 43560,
      "componentType": 5126,
      "count": 1150,
      "max": [
        0.9993901252746582,
        0.9999984502792358,
        0.999901533126831
      ],
      "min": [
        -0.9993901252746582,
        -0.9999995827674866,
        -0.9999072551727295
      ],
      "type": "VEC3"
    },
    {
      "bufferView": 1,
      "byteOffset": 9920,
      "componentType": 5126,
      "count": 1150,
      "max": [
        0.29071199893951416,
        0.9751629829406738
      ],
      "min": [
        -2.903975009918213,
        -1.4250119924545288
      ],
      "type": "VEC2"
    },
    {
      "bufferView": 0,
      "byteOffset": 17616,
      "componentType": 5125,
      "count": 5442,
      "type": "SCALAR"
    }
  ],
  "asset": {
    "extras": {
      "author": "Dr. Heinz Doofenshmirtz (https://sketchfab.com/Dr._Heinz_Doofenshmirtz)",
      "license": "CC-BY-4.0 (http://creativecommons.org/licenses/by/4.0/)",
      "source": "https://sketchfab.com/3d-models/snoopy-flying-ace-a08fde6e48834a739feec834ba7c0026",
      "title": "Snoopy Flying Ace."
    },
    "generator": "Sketchfab-15.55.0",
    "version": "2.0"
  },
  "bufferViews": [
    {
      "buffer": 0,
      "byteLength": 39384,
      "name": "floatBufferViews",
      "target": 34963
    },
    {
      "buffer": 0,
      "byteLength": 19120,
      "byteOffset": 39384,
      "byteStride": 8,
      "name": "floatBufferViews",
      "target": 34962
    },
    {
      "buffer": 0,
      "byteLength": 57360,
      "byteOffset": 58504,
      "byteStride": 12,
      "name": "floatBufferViews",
      "target": 34962
    }
  ],
  "buffers": [
    {
      "byteLength": 115864,
      "uri": "scene.bin"
    }
  ],
  "images": [
    {
      "uri": "textures/foot_baseColor.png"
    },
    {
      "uri": "textures/helmet_baseColor.png"
    },
    {
      "uri": "textures/nose_baseColor.png"
    },
    {
      "uri": "textures/spot_baseColor.png"
    },
    {
      "uri": "textures/white_baseColor.png"
    }
  ],
  "materials": [
    {
      "doubleSided": true,
      "name": "foot",
      "pbrMetallicRoughness": {
        "baseColorTexture": {
          "index": 0
        },
        "metallicFactor": 0.0
      }
    },
    {
      "doubleSided": true,
      "name": "helmet",
      "pbrMetallicRoughness": {
        "baseColorTexture": {
          "index": 1
        },
        "metallicFactor": 0.0
      }
    },
    {
      "doubleSided": true,
      "name": "nose",
      "pbrMetallicRoughness": {
        "baseColorTexture": {
          "index": 2
        },
        "metallicFactor": 0.0
      }
    },
    {
      "doubleSided": true,
      "name": "spot",
      "pbrMetallicRoughness": {
        "baseColorTexture": {
          "index": 3
        },
        "metallicFactor": 0.0
      }
    },
    {
      "doubleSided": true,
      "name": "white",
      "pbrMetallicRoughness": {
        "baseColorTexture": {
          "index": 4
        },
        "metallicFactor": 0.0
      }
    }
  ],
  "meshes": [
    {
      "name": "Object_0",
      "primitives": [
        {
          "attributes": {
            "NORMAL": 1,
            "POSITION": 0,
            "TEXCOORD_0": 2
          },
          "indices": 3,
          "material": 0,
          "mode": 4
        }
      ]
    },
    {
      "name": "Object_1",
      "primitives": [
        {
          "attributes": {
            "NORMAL": 5,
            "POSITION": 4,
            "TEXCOORD_0": 6
          },
          "indices": 7,
          "material": 2,
          "mode": 4
        }
      ]
    },
    {
      "name": "Object_2",
      "primitives": [
        {
          "attributes": {
            "NORMAL": 9,
            "POSITION": 8,
            "TEXCOORD_0": 10
          },
          "indices": 11,
          "material": 3,
          "mode": 4
        }
      ]
    },
    {
      "name": "Object_3",
      "primitives": [
        {
          "attributes": {
            "NORMAL": 13,
            "POSITION": 12,
            "TEXCOORD_0": 14
          },
          "indices": 15,
          "material": 1,
          "mode": 4
        }
      ]
    },
    {
      "name": "Object_4",
      "primitives": [
        {
          "attributes": {
            "NORMAL": 17,
            "POSITION": 16,
            "TEXCOORD_0": 18
          },
          "indices": 19,
          "material": 4,
          "mode": 4
        }
      ]
    }
  ],
  "nodes": [
    {
      "children": [
        1
      ],
      "matrix": [
        1.0,
        0.0,
        0.0,
        0.0,
        0.0,
        2.220446049250313e-16,
        -1.0,
        0.0,
        0.0,
        1.0,
        2.220446049250313e-16,
        0.0,
        0.0,
        0.0,
        0.0,
        1.0
      ],
      "name": "Sketchfab_model"
    },
    {
      "children": [
        2,
        3,
        4,
        5,
        6
      ],
      "name": "snoopy.obj.cleaner.materialmerger.gles"
    },
    {
      "mesh": 0,
      "name": "Object_2"
    },
    {
      "mesh": 1,
      "name": "Object_3"
    },
    {
      "mesh": 2,
      "name": "Object_4"
    },
    {
      "mesh": 3,
      "name": "Object_5"
    },
    {
      "mesh": 4,
      "name": "Object_6"
    }
  ],
  "samplers": [
    {
      "magFilter": 9729,
      "minFilter": 9987,
      "wrapS": 10497,
      "wrapT": 10497
    }
  ],
  "scene": 0,
  "scenes": [
    {
      "name": "Sketchfab_Scene",
      "nodes": [
        0
      ]
    }
  ],
  "textures": [
    {
      "sampler": 0,
      "source": 0
    },
    {
      "sampler": 0,
      "source": 1
    },
    {
      "sampler": 0,
      "source": 2
    },
    {
      "sampler": 0,
      "source": 3
    },
    {
      "sampler": 0,
      "source": 4
    }
  ]
}
